<svg width="21" height="19" viewBox="0 0 21 19" fill="none" xmlns="http://www.w3.org/2000/svg" id="svg-1921495573_1047">
<g clip-path="url(#svg-1921495573_1047_clip0_911_64545)">
<path fill-rule="evenodd" clip-rule="evenodd" d="M2.99816 0.849792H10.0355C14.3161 0.849792 17.5609 3.15063 18.768 6.49858H20.9602V8.52208H19.2296C19.2638 8.84649 19.2809 9.17248 19.2807 9.49868V9.54837C19.2808 9.91524 19.2592 10.2818 19.216 10.6461H20.9602V12.6696H18.7263C17.4874 15.971 14.2678 18.2498 10.0355 18.2498H2.99816V12.6696H0.552734V10.6461H2.99816V8.52208H0.552734V6.49858H2.99816V0.849792ZM4.96554 12.6696V16.4348H10.0355C13.1641 16.4348 15.4887 14.9269 16.5707 12.6696H4.96554ZM17.1734 10.6461H4.96554V8.52208H17.1766C17.2223 8.86226 17.2451 9.20513 17.2448 9.54837V9.59806C17.2452 9.94863 17.2213 10.2988 17.1734 10.6461V10.6461ZM10.0355 2.66208C13.1782 2.66208 15.51 4.20978 16.5856 6.49868H4.96554V2.66208H10.0355Z" fill="white"></path>
</g>
<defs>
<clipPath id="svg-1921495573_1047_clip0_911_64545">
<rect width="20.4075" height="17.4" fill="white" transform="translate(0.552734 0.849792)"></rect>
</clipPath>
</defs>
</svg>