<svg width="135" height="134" viewBox="0 0 135 134" fill="none" xmlns="http://www.w3.org/2000/svg" id="svg-273038917_2832">
<path fill-rule="evenodd" clip-rule="evenodd" d="M58.6218 66.2615L65.7083 65.8908C65.5638 65.4196 65.3502 64.9924 65.08 64.6155C64.7282 64.1192 64.257 63.692 63.6853 63.3464L56.1968 63.736C53.9162 63.849 52.1006 65.627 51.9311 67.9011L51.039 79.7057C51.0013 80.2334 51.0641 80.7423 51.2149 81.2135L51.8432 81.4459C52.7667 81.7914 53.7279 81.8291 54.6075 81.5904C54.7834 81.5464 54.9656 81.4836 55.1352 81.4145C54.2054 80.648 53.7217 79.5109 53.8159 78.2608L54.4441 70.3261C54.6263 68.1021 56.3979 66.3808 58.622 66.2614L58.6218 66.2615Z" fill="#2B3130"></path>
<path fill-rule="evenodd" clip-rule="evenodd" d="M124.644 29.134L124.625 26.3445C124.619 25.6786 124.072 25.1383 123.406 25.1383L103.88 25.2514C103.359 25.2577 102.919 25.3142 102.416 25.4524L87.3447 29.5611L89.0849 34.4866L102.994 30.6668C103.497 30.5286 103.943 30.4658 104.464 30.4658L123.431 30.3527C124.109 30.3464 124.65 29.7999 124.643 29.1339L124.644 29.134Z" fill="#2B3130"></path>
<path fill-rule="evenodd" clip-rule="evenodd" d="M80.2645 26.8276L68.8809 30.8546L76.0051 44.368L85.3094 41.076L88.0109 35.4156L85.9251 29.5289L80.2645 26.8276Z" fill="#2B3130"></path>
<path fill-rule="evenodd" clip-rule="evenodd" d="M127.992 37.9039L125.636 33.1732L123.01 37.7594C122.093 39.4432 120.227 42.1885 120.17 44.0418C120.088 46.8814 122.325 49.2499 125.165 49.3316C128.004 49.4133 130.373 47.1768 130.455 44.337C130.517 42.4838 128.809 39.6378 127.992 37.9039H127.992Z" fill="#2B3130"></path>
<path d="M78.0215 51.0709L80.2643 58.1573L80.3575 58.4337C80.9167 59.8725 80.7031 61.374 79.7733 62.6053C73.5265 70.827 67.1083 78.6499 60.5407 86.6548C60.2132 87.0541 59.8853 87.4537 59.557 87.8539C58.0555 89.6821 55.6619 90.3291 53.4379 89.4999L39.3402 84.229L37.889 86.7733L36.1676 85.7933C35.879 86.5517 35.5438 87.4504 35.1627 88.4722C34.0301 91.5086 32.492 95.6323 30.5642 100.395C29.7824 102.326 27.6062 103.274 25.6498 102.558V102.558C23.5547 101.79 22.5328 99.4249 23.3762 97.3593C26.0914 90.7092 28.0816 85.09 29.1124 81.773L27.0203 80.5856L43.1853 52.2265C43.3989 52.4401 43.625 52.6475 43.8701 52.8297C44.0774 52.9867 44.3036 53.1375 44.5486 53.2757L53.9471 58.622L42.199 79.2532L51.4091 82.6834C53.79 83.5691 56.3596 82.8782 57.9679 80.9054L65.9214 71.1865C67.0836 69.7667 67.5234 68.0704 67.1841 66.2611C66.845 64.4518 65.8335 63.0257 64.2315 62.1147L63.9299 61.9451L55.4297 57.9369L55.4612 57.9243C55.4173 57.9024 55.3723 57.8841 55.3271 57.8657C55.2687 57.8419 55.21 57.818 55.1533 57.7861L45.202 52.1195C42.9655 50.8505 41.8975 47.8034 43.4555 45.7617L54.877 30.7844C56.944 28.0704 60.6505 27.3165 63.6221 29.0065L67.6115 31.2745L77.9336 50.8635C77.9511 50.9056 77.9588 50.9457 77.9666 50.9861C77.9728 51.018 77.979 51.0501 77.9901 51.0834L78.0215 51.0709Z" fill="#2B3130"></path>
</svg>