<svg width="96" height="96" viewBox="0 0 96 96" fill="none" xmlns="http://www.w3.org/2000/svg" id="svg-96429148_1290">
<circle cx="48" cy="48" r="48" fill="#F0F0F4" fill-opacity="0.42"></circle>
<path d="M48.9601 73.64C44.0053 73.642 39.1612 72.1744 35.0405 69.4231C30.9197 66.6717 27.7075 62.7601 25.81 58.183C23.9125 53.6059 23.4151 48.5688 24.3805 43.709C25.346 38.8491 27.731 34.3847 31.2339 30.8804C34.7369 27.3762 39.2003 24.9894 44.0598 24.0221C48.9193 23.0547 53.9565 23.5502 58.5344 25.4459C63.1123 27.3416 67.0251 30.5523 69.7781 34.672C72.531 38.7916 74.0004 43.6352 74.0004 48.59C73.9999 55.2319 71.3619 61.6017 66.6663 66.2991C61.9707 70.9965 55.602 73.6369 48.9601 73.64V73.64ZM67.2938 47.2223H55.6609C55.3143 45.4863 54.3299 43.9432 52.9017 42.8973C51.4735 41.8514 49.7052 41.3786 47.9456 41.5722C46.186 41.7658 44.5628 42.6117 43.3961 43.9431C42.2295 45.2745 41.604 46.9947 41.6432 48.7645C41.6823 50.5343 42.3832 52.2251 43.6076 53.5036C44.832 54.7821 46.491 55.5555 48.2574 55.6711C50.0239 55.7867 51.7695 55.2362 53.1501 54.1281C54.5306 53.0201 55.4459 51.435 55.7154 49.6854H67.2841C67.6107 49.6854 67.924 49.5557 68.155 49.3247C68.3859 49.0937 68.5157 48.7805 68.5157 48.4538C68.5157 48.1272 68.3859 47.8139 68.155 47.583C67.924 47.352 67.6107 47.2223 67.2841 47.2223H67.2938Z" fill="black"></path>
</svg>