<svg width="122" height="122" viewBox="0 0 122 122" fill="none" xmlns="http://www.w3.org/2000/svg" id="svg-347444940_4626">
<g clip-path="url(#svg-347444940_4626_clip0_922_64869)">
<path d="M43.3926 62.5933H46.6766V65.7449H43.3926V62.5933Z" fill="#2B3130"></path>
<path d="M0 62.357C0.397489 70.9457 4.66588 78.8867 11.603 83.9589C18.545 89.0317 27.4083 90.6879 35.7077 88.4639C44.0126 86.2399 50.8601 80.3768 54.3332 72.512L105.44 72.5878C106.756 72.5215 108.019 72.0672 109.074 71.2817L120.431 63.2278C120.848 62.906 121.089 62.4139 121.089 61.8886C121.089 61.3633 120.848 60.8712 120.431 60.5493L108.081 49.4574C107.561 49.0504 106.927 48.8091 106.264 48.776H103.16C102.511 48.8138 101.901 49.0788 101.437 49.5331L95.7588 55.7605L89.9477 49.8927C89.5976 49.5283 89.1102 49.3201 88.6038 49.3154C88.0501 49.3201 87.5249 49.5756 87.1841 50.0157L81.7706 56.7921L77.0386 50.101C76.7499 49.6467 76.253 49.3628 75.7135 49.3439C75.2356 49.3581 74.786 49.5805 74.4927 49.959L69.0887 56.423L61.5173 48.3596H53.7094C51.3718 43.7032 47.8038 39.7756 43.3935 37.0026V45.8611H49.5168C50.5626 45.8611 51.4097 46.7081 51.4097 47.7539C51.4097 48.7997 50.5626 49.6467 49.5168 49.6467H41.5007C40.4549 49.6467 39.6079 48.7997 39.6079 47.7539V35.1479V35.0438C32.8315 32.1194 25.1799 31.9632 18.2846 34.599V47.8494C18.2846 48.351 18.0858 48.8337 17.7309 49.1887C17.376 49.5436 16.8933 49.7423 16.3917 49.7423H7.42919C6.3834 49.7423 5.53636 48.8953 5.53636 47.8495C5.53636 46.8037 6.3834 45.9566 7.42919 45.9566H14.4989V36.3316C6.32656 40.917 0.945592 49.2404 0.113352 58.5719H29.1776C29.6792 58.5719 30.1618 58.7707 30.5168 59.1256C30.8717 59.4805 31.0704 59.9632 31.0704 60.4648V72.4558C31.0704 73.5016 30.2234 74.3487 29.1776 74.3487C28.1318 74.3487 27.2848 73.5016 27.2848 72.4558V62.3576L0 62.357ZM18.2851 82.7899C18.2851 83.8357 17.438 84.6827 16.3922 84.6827C15.3464 84.6827 14.4994 83.8357 14.4994 82.7899V74.8968H6.48324C5.43745 74.8968 4.59041 74.0498 4.59041 73.004C4.59041 71.9582 5.43745 71.1112 6.48324 71.1112H16.3922C16.8938 71.1112 17.3765 71.3099 17.7314 71.6648C18.0864 72.0197 18.2851 72.5024 18.2851 73.004L18.2851 82.7899ZM19.3356 68.2808H9.32253C8.27675 68.2808 7.4297 67.4338 7.4297 66.388C7.4297 65.3422 8.27675 64.4952 9.32253 64.4952H19.3356C20.3814 64.4952 21.2284 65.3422 21.2284 66.388C21.2284 67.4338 20.3814 68.2808 19.3356 68.2808V68.2808ZM24.768 78.4547C24.768 79.5005 23.921 80.3476 22.8752 80.3476C21.8294 80.3476 20.9824 79.5005 20.9824 78.4547V74.5839C20.9824 73.5381 21.8294 72.6911 22.8752 72.6911C23.921 72.6911 24.768 73.5381 24.768 74.5839V78.4547ZM51.5802 71.2714C52.626 71.2714 53.4731 72.1185 53.4731 73.1643C53.4731 74.2101 52.626 75.0571 51.5802 75.0571H34.9427C33.8969 75.0571 33.0499 74.2101 33.0499 73.1643V60.5486C33.0499 59.5028 33.8969 58.6558 34.9427 58.6558C35.9885 58.6558 36.8355 59.5028 36.8355 60.5486V71.2716L51.5802 71.2714ZM41.5009 52.182H48.6748C49.7206 52.182 50.5676 53.029 50.5676 54.0748C50.5676 55.1206 49.7206 55.9677 48.6748 55.9677H41.5009C40.4551 55.9677 39.6081 55.1206 39.6081 54.0748C39.6081 53.029 40.4551 52.182 41.5009 52.182ZM39.6081 60.6997C39.6081 59.6539 40.4551 58.8068 41.5009 58.8068H48.5706C49.0722 58.8068 49.5549 59.0056 49.9098 59.3605C50.2647 59.7154 50.4635 60.1981 50.4635 60.6997V67.637C50.4635 68.1386 50.2647 68.6213 49.9098 68.9762C49.5549 69.3311 49.0722 69.5299 48.5706 69.5299H41.5009C40.4551 69.5299 39.6081 68.6828 39.6081 67.637V60.6997ZM16.4968 55.9677H9.3229C8.27711 55.9677 7.43006 55.1206 7.43006 54.0748C7.43006 53.029 8.27711 52.182 9.3229 52.182H16.4968C17.5425 52.182 18.3896 53.029 18.3896 54.0748C18.3896 55.1206 17.5425 55.9677 16.4968 55.9677ZM24.7306 53.4029C24.7306 54.4486 23.8836 55.2957 22.8378 55.2957C21.792 55.2957 20.9449 54.4486 20.9449 53.4029V41.5821C20.9449 40.5364 21.792 39.6893 22.8378 39.6893C23.8836 39.6893 24.7306 40.5364 24.7306 41.5821V53.4029ZM29.4626 55.2957C28.4168 55.2957 27.5698 54.4486 27.5698 53.4029V41.5821C27.5698 40.5364 28.4168 39.6893 29.4626 39.6893C30.5084 39.6893 31.3555 40.5364 31.3555 41.5821V51.5195H33.5228V41.1088C33.5228 40.0631 34.3698 39.216 35.4156 39.216C36.4614 39.216 37.3085 40.0631 37.3085 41.1088V53.4119C37.3085 53.9135 37.1097 54.3962 36.7548 54.7512C36.3999 55.1061 35.9172 55.3048 35.4156 55.3048L29.4626 55.2957ZM28.8664 77.8958H36.362C37.4078 77.8958 38.2548 78.7428 38.2548 79.7886C38.2548 80.8344 37.4078 81.6815 36.362 81.6815H28.8664C27.8206 81.6815 26.9736 80.8344 26.9736 79.7886C26.9736 78.7428 27.8206 77.8958 28.8664 77.8958V77.8958Z" fill="#2B3130"></path>
</g>
<defs>
<clipPath id="svg-347444940_4626_clip0_922_64869">
<rect width="121.141" height="121.141" fill="white" transform="translate(0 0.527832)"></rect>
</clipPath>
</defs>
</svg>