<svg width="28" height="26" viewBox="0 0 28 26" fill="none" xmlns="http://www.w3.org/2000/svg" id="svg-1006365305_4459">
<path d="M27.4824 20.0362L23.0231 24.8176C22.9266 24.9215 22.8098 25.0043 22.6799 25.061C22.5501 25.1178 22.4099 25.1471 22.2681 25.1473H1.12944C1.02862 25.1472 0.930001 25.1178 0.845663 25.0625C0.761327 25.0073 0.694931 24.9286 0.654604 24.8362C0.614277 24.7438 0.60177 24.6417 0.618616 24.5423C0.635461 24.4429 0.680924 24.3505 0.749444 24.2765L5.20367 19.4952C5.30013 19.3913 5.41692 19.3084 5.54682 19.2517C5.6767 19.195 5.81689 19.1657 5.95862 19.1655H27.0973C27.199 19.1634 27.2991 19.1915 27.385 19.2461C27.4708 19.3008 27.5387 19.3796 27.5797 19.4727C27.621 19.5657 27.6336 19.6689 27.6162 19.7692C27.5989 19.8695 27.5523 19.9624 27.4824 20.0362ZM23.0231 10.4055C22.9263 10.3022 22.8094 10.2196 22.6796 10.1629C22.5498 10.1062 22.4098 10.0766 22.2681 10.0759H1.12944C1.02862 10.0759 0.930001 10.1054 0.845663 10.1607C0.761327 10.2159 0.694931 10.2945 0.654604 10.3869C0.614277 10.4793 0.60177 10.5815 0.618616 10.6809C0.635461 10.7803 0.680924 10.8726 0.749444 10.9466L5.20367 15.7305C5.30048 15.8339 5.41737 15.9164 5.54717 15.9731C5.67698 16.0298 5.81699 16.0594 5.95862 16.0601H27.0973C27.198 16.0596 27.2961 16.0298 27.3802 15.9744C27.4642 15.9189 27.5302 15.8403 27.5702 15.748C27.6102 15.6557 27.6225 15.5537 27.6054 15.4545C27.5885 15.3553 27.5433 15.2632 27.4748 15.1894L23.0231 10.4055ZM1.12944 6.97049H22.2681C22.4099 6.97037 22.5501 6.941 22.6799 6.88428C22.8098 6.82758 22.9266 6.74469 23.0231 6.64083L27.4824 1.85947C27.5523 1.78562 27.5989 1.6927 27.6162 1.59242C27.6336 1.49214 27.621 1.38897 27.5797 1.2959C27.5387 1.20282 27.4708 1.124 27.385 1.06935C27.2991 1.0147 27.199 0.986656 27.0973 0.988757H5.95862C5.81689 0.988907 5.6767 1.01826 5.54682 1.07497C5.41692 1.13169 5.30013 1.21456 5.20367 1.31842L0.749444 6.09978C0.680924 6.17374 0.635461 6.2661 0.618616 6.3655C0.60177 6.4649 0.614277 6.56705 0.654604 6.65945C0.694931 6.75186 0.761327 6.8305 0.845663 6.88574C0.930001 6.941 1.02862 6.97044 1.12944 6.97049Z" fill="url(#svg-1006365305_4459_paint0_linear_911_64580)"></path>
<path d="M27.4824 20.0362L23.0231 24.8176C22.9266 24.9215 22.8098 25.0043 22.6799 25.061C22.5501 25.1178 22.4099 25.1471 22.2681 25.1473H1.12944C1.02862 25.1472 0.930001 25.1178 0.845663 25.0625C0.761327 25.0073 0.694931 24.9286 0.654604 24.8362C0.614277 24.7438 0.60177 24.6417 0.618616 24.5423C0.635461 24.4429 0.680924 24.3505 0.749444 24.2765L5.20367 19.4952C5.30013 19.3913 5.41692 19.3084 5.54682 19.2517C5.6767 19.195 5.81689 19.1657 5.95862 19.1655H27.0973C27.199 19.1634 27.2991 19.1915 27.385 19.2461C27.4708 19.3008 27.5387 19.3796 27.5797 19.4727C27.621 19.5657 27.6336 19.6689 27.6162 19.7692C27.5989 19.8695 27.5523 19.9624 27.4824 20.0362ZM23.0231 10.4055C22.9263 10.3022 22.8094 10.2196 22.6796 10.1629C22.5498 10.1062 22.4098 10.0766 22.2681 10.0759H1.12944C1.02862 10.0759 0.930001 10.1054 0.845663 10.1607C0.761327 10.2159 0.694931 10.2945 0.654604 10.3869C0.614277 10.4793 0.60177 10.5815 0.618616 10.6809C0.635461 10.7803 0.680924 10.8726 0.749444 10.9466L5.20367 15.7305C5.30048 15.8339 5.41737 15.9164 5.54717 15.9731C5.67698 16.0298 5.81699 16.0594 5.95862 16.0601H27.0973C27.198 16.0596 27.2961 16.0298 27.3802 15.9744C27.4642 15.9189 27.5302 15.8403 27.5702 15.748C27.6102 15.6557 27.6225 15.5537 27.6054 15.4545C27.5885 15.3553 27.5433 15.2632 27.4748 15.1894L23.0231 10.4055ZM1.12944 6.97049H22.2681C22.4099 6.97037 22.5501 6.941 22.6799 6.88428C22.8098 6.82758 22.9266 6.74469 23.0231 6.64083L27.4824 1.85947C27.5523 1.78562 27.5989 1.6927 27.6162 1.59242C27.6336 1.49214 27.621 1.38897 27.5797 1.2959C27.5387 1.20282 27.4708 1.124 27.385 1.06935C27.2991 1.0147 27.199 0.986656 27.0973 0.988757H5.95862C5.81689 0.988907 5.6767 1.01826 5.54682 1.07497C5.41692 1.13169 5.30013 1.21456 5.20367 1.31842L0.749444 6.09978C0.680924 6.17374 0.635461 6.2661 0.618616 6.3655C0.60177 6.4649 0.614277 6.56705 0.654604 6.65945C0.694931 6.75186 0.761327 6.8305 0.845663 6.88574C0.930001 6.941 1.02862 6.97044 1.12944 6.97049Z" fill="white"></path>
<defs>
<linearGradient id="svg-1006365305_4459_paint0_linear_911_64580" x1="2.89099" y1="25.7236" x2="25.0564" y2="0.734592" gradientUnits="userSpaceOnUse">
<stop offset="0.08" stop-color="#9945FF"></stop>
<stop offset="0.3" stop-color="#8752F3"></stop>
<stop offset="0.5" stop-color="#5497D5"></stop>
<stop offset="0.6" stop-color="#43B4CA"></stop>
<stop offset="0.72" stop-color="#28E0B9"></stop>
<stop offset="0.97" stop-color="#19FB9B"></stop>
</linearGradient>
</defs>
</svg>