<svg width="31" height="31" viewBox="0 0 31 31" fill="none" xmlns="http://www.w3.org/2000/svg" id="svg1452978237_2667">
<g clip-path="url(#svg1452978237_2667_clip0_911_64566)">
<path d="M15.4047 30.2806C23.7819 30.2806 30.5214 23.5411 30.5214 15.164C30.5214 6.78676 23.7819 0.0473099 15.4047 0.0473099C7.02754 0.0473099 0.288086 6.78676 0.288086 15.164C0.288086 23.5411 7.02754 30.2806 15.4047 30.2806Z" fill="#2775CA"></path>
<path d="M19.5621 17.5574C19.5621 15.3529 18.2394 14.5971 15.594 14.2822C13.7044 14.0302 13.3265 13.5264 13.3265 12.6445C13.3265 11.7626 13.9564 11.1958 15.2161 11.1958C16.3499 11.1958 16.9798 11.5737 17.2946 12.5185C17.3577 12.7075 17.5466 12.8334 17.7356 12.8334H18.7433C18.9953 12.8334 19.1842 12.6445 19.1842 12.3926V12.3296C18.9322 10.9438 17.7985 9.87313 16.3499 9.74721V8.23554C16.3499 7.98355 16.1609 7.79459 15.846 7.73155H14.9012C14.6492 7.73155 14.4603 7.92051 14.3972 8.23554V9.68417C12.5077 9.93616 11.311 11.1958 11.311 12.7705C11.311 14.8491 12.5707 15.6678 15.2161 15.9828C16.9798 16.2977 17.5466 16.6756 17.5466 17.6834C17.5466 18.6913 16.6647 19.3841 15.4681 19.3841C13.8304 19.3841 13.2635 18.6911 13.0745 17.7463C13.0117 17.4945 12.8227 17.3684 12.6337 17.3684H11.5629C11.311 17.3684 11.1221 17.5574 11.1221 17.8094V17.8724C11.3739 19.447 12.3817 20.5807 14.4603 20.8957V22.4074C14.4603 22.6592 14.6492 22.8482 14.9641 22.9112H15.9089C16.1609 22.9112 16.3499 22.7223 16.4129 22.4074V20.8957C18.3025 20.5807 19.5621 19.258 19.5621 17.5574V17.5574Z" fill="white"></path>
<path d="M12.1921 24.1709C7.27917 22.4074 4.75968 16.9276 6.58638 12.0776C7.53117 9.43219 9.60971 7.41668 12.1921 6.47189C12.4441 6.34597 12.57 6.15701 12.57 5.84198V4.96023C12.57 4.70823 12.4441 4.51928 12.1921 4.45639C12.129 4.45639 12.0031 4.45639 11.9401 4.51928C5.95647 6.40886 2.68114 12.7705 4.57072 18.7542C5.70447 22.2813 8.41292 24.9898 11.9401 26.1235C12.1921 26.2495 12.4441 26.1235 12.507 25.8715C12.57 25.8086 12.57 25.7456 12.57 25.6197V24.7378C12.57 24.5488 12.381 24.297 12.1921 24.1709ZM18.8687 4.51928C18.6167 4.39335 18.3647 4.51928 18.3018 4.77127C18.2387 4.83431 18.2387 4.89719 18.2387 5.02326V5.90502C18.2387 6.15701 18.4277 6.40886 18.6167 6.53493C23.5296 8.29844 26.0491 13.7782 24.2224 18.6282C23.2776 21.2737 21.199 23.2892 18.6167 24.2339C18.3647 24.3599 18.2387 24.5488 18.2387 24.8639V25.7456C18.2387 25.9976 18.3647 26.1866 18.6167 26.2495C18.6797 26.2495 18.8056 26.2495 18.8687 26.1866C24.8523 24.297 28.1276 17.9353 26.238 11.9517C25.1043 8.36147 22.3328 5.65302 18.8687 4.51928V4.51928Z" fill="white"></path>
</g>
<defs>
<clipPath id="svg1452978237_2667_clip0_911_64566">
<rect width="30.2333" height="30.2333" fill="white" transform="translate(0.288086 0.0473099)"></rect>
</clipPath>
</defs>
</svg>