<svg width="113" height="60" viewBox="0 0 113 60" fill="none" xmlns="http://www.w3.org/2000/svg" id="svg83819985_2458">
<path d="M111.443 31.5363C112.272 30.6114 112.272 29.2118 111.443 28.287C110.432 27.1613 86.3751 0.703735 56.0323 0.703735C25.6894 0.703735 1.63157 27.1607 0.621228 28.287C-0.207076 29.2119 -0.207076 30.6115 0.621228 31.5363C1.63225 32.6621 25.6894 59.1196 56.0323 59.1196C86.3751 59.1196 110.433 32.6626 111.443 31.5363ZM5.81635 29.9116C10.238 25.4939 23.6064 13.2996 40.5934 8.04842H40.5995C33.4737 13.0502 29.2347 21.2042 29.2347 29.9054C29.2347 38.6008 33.4675 46.7541 40.5811 51.7623C23.619 46.5109 10.2444 34.3232 5.81635 29.9116ZM56.0323 51.2093C47.8345 51.2093 40.3674 46.5117 36.8172 39.1306C33.2665 31.7494 34.2714 22.9937 39.3934 16.5976L42.2437 18.8856C39.7222 22.0072 38.3518 25.9016 38.3701 29.9116C38.3762 37.8951 43.7419 44.8807 51.4585 46.9442C59.1751 49.0069 67.3183 45.6359 71.3128 38.7234C75.3074 31.8109 74.1571 23.0788 68.5112 17.4319C62.8592 11.7911 54.1193 10.6349 47.2006 14.6267L45.3734 11.4626C51.1106 8.15232 58.0659 7.70198 64.1862 10.2334C70.3132 12.7648 74.9055 18.004 76.623 24.3994C78.3345 30.7947 76.9763 37.6221 72.9443 42.8728C68.9064 48.1303 62.6575 51.2094 56.0306 51.2094L56.0323 51.2093ZM64.3153 36.1185L67.2387 38.309C65.7831 40.2441 63.8524 41.7714 61.6354 42.745L60.1737 39.3984C61.8121 38.6803 63.2436 37.5485 64.3153 36.1185ZM56.0323 36.6053C53.322 36.6053 50.8797 34.9745 49.8443 32.4736C48.8028 29.9727 49.3814 27.0945 51.2938 25.1777C53.2124 23.267 56.0931 22.6889 58.5963 23.7295C61.0995 24.7639 62.7317 27.2041 62.7317 29.9119C62.7256 33.6055 59.7292 36.5992 56.0323 36.6053ZM66.179 31.9868C66.3191 31.2992 66.3861 30.6055 66.3861 29.9119C66.3861 25.7254 63.8646 21.9588 59.9971 20.3524C56.1235 18.7521 51.6715 19.6404 48.7114 22.5977C45.7515 25.555 44.8621 30.0032 46.464 33.8733C48.0718 37.7373 51.8419 40.2565 56.0321 40.2565V43.9076C50.1122 43.9015 44.8378 40.1836 42.8524 34.6096C40.8669 29.0419 42.6027 22.8291 47.1826 19.0869C51.7688 15.3447 58.2125 14.8882 63.2794 17.949C68.3406 21.0036 70.9413 26.9122 69.7596 32.7052L66.179 31.9868ZM71.4655 51.7751C78.5913 46.7733 82.8304 38.6193 82.8304 29.9181C82.8304 21.2227 78.5975 13.0694 71.4839 8.0612C88.446 13.3186 101.82 25.5066 106.248 29.9181C101.827 34.3297 88.4588 46.5239 71.4655 51.7751Z" fill="white"></path>
<path d="M59.0773 29.9133C59.0773 33.972 52.9869 33.972 52.9869 29.9133C52.9869 25.8546 59.0773 25.8546 59.0773 29.9133Z" fill="white"></path>
</svg>