<svg width="61" height="52" viewBox="0 0 61 52" fill="none" xmlns="http://www.w3.org/2000/svg" id="svg-1505872599_2512">
<g clip-path="url(#svg-1505872599_2512_clip0_911_64209)">
<path d="M18.9346 6.02679C15.9144 6.99323 12.8741 7.95967 12.1594 8.18115L10.8809 8.5939V17.4731C10.8809 22.7885 10.9211 26.7952 10.9815 27.4597C11.4245 32.1107 13.4379 36.5201 16.8003 40.1845C17.5654 41.0201 29.7064 51.6006 30.0486 51.7315C30.1896 51.7818 40.8607 42.6811 42.6124 41.01C45.6527 38.1207 48.0285 33.8926 48.8741 29.8456C49.3171 27.7113 49.3473 26.916 49.3171 17.453L49.2869 8.55363L42.4513 6.39927C38.6963 5.22142 35.6057 4.26504 35.5856 4.27511C35.5755 4.29524 36.1392 5.41269 36.854 6.77175L38.1527 9.2382L40.0956 9.86236C41.1627 10.2046 42.7735 10.7181 43.6795 10.9999L45.3205 11.5134L45.2802 19.6879C45.25 27.5402 45.2399 27.9026 45.0386 28.8187C44.2735 32.2717 42.6929 35.2013 40.2668 37.6778C39.8037 38.1509 37.448 40.2348 35.0419 42.2986C32.6359 44.3724 30.5419 46.1744 30.3909 46.3154L30.1292 46.557L25.5084 42.5805C19.8607 37.708 19.0151 36.8825 17.6661 34.8087C16.6292 33.208 15.8641 31.4865 15.401 29.7046C14.948 27.8926 14.9077 27.2181 14.9077 19.1442V11.5234L16.3473 11.0704C17.1325 10.8187 18.7433 10.3053 19.9211 9.93283C21.0889 9.56034 22.0554 9.21806 22.0554 9.18786C22.0554 9.15766 22.6191 8.05028 23.3137 6.73148C24.0084 5.40263 24.5721 4.30531 24.5721 4.28518C24.5721 4.22477 24.4513 4.26504 18.9346 6.02679Z" fill="#FF4C2F"></path>
<path d="M29.8476 4.57714C29.757 4.75835 27.22 9.60063 24.22 15.3288L18.7637 25.7483L18.8442 26.5939C19.0254 28.3255 19.6697 30.1577 20.7167 31.8188C21.0892 32.4228 21.1999 32.5335 21.3006 32.4228C21.361 32.3523 23.3543 28.5872 25.7301 24.057C28.0959 19.5369 30.059 15.8322 30.0992 15.8322C30.1294 15.8322 32.1227 19.4966 34.5187 23.9664C36.9147 28.4362 38.918 32.1711 38.9784 32.2718C39.0791 32.4429 39.0992 32.4328 39.2603 32.2214C40.2972 30.8624 41.1529 28.6174 41.3945 26.6342L41.5154 25.6275L35.7972 14.9664C32.6563 9.10734 30.069 4.2852 30.0489 4.27513C30.0388 4.25499 29.9482 4.38587 29.8476 4.57714Z" fill="#FF4C2F"></path>
<path d="M27.2899 30.2181L24.5215 35.7449L26.0819 37.104C26.9376 37.8489 28.196 38.9261 28.8705 39.4899L30.1087 40.5167L30.3805 40.2952C30.5416 40.1744 31.7799 39.0973 33.1389 37.8993L35.6255 35.7248L32.8671 30.208C31.347 27.1778 30.0987 24.6912 30.0785 24.6912C30.0685 24.6912 28.8101 27.1778 27.2899 30.2181Z" fill="#FF4C2F"></path>
</g>
<defs>
<clipPath id="svg-1505872599_2512_clip0_911_64209">
<rect width="60" height="50.7692" fill="white" transform="translate(0.109375 0.615356)"></rect>
</clipPath>
</defs>
</svg>